<mxfile host="app.diagrams.net" modified="2021-02-27T09:51:26.503Z" agent="5.0 (Windows NT 10.0; Win64; x64) AppleWebKit/537.36 (KHTML, like Gecko) Chrome/88.0.4324.190 Safari/537.36" etag="rYeYhWGSFXcETyCzlsbg" version="14.4.2" type="gitlab">
  <diagram id="b4eb7j0MX491nZm_wCbV" name="Page-1">
    <mxGraphModel dx="868" dy="1582" grid="1" gridSize="10" guides="1" tooltips="1" connect="1" arrows="1" fold="1" page="1" pageScale="1" pageWidth="850" pageHeight="1100" math="0" shadow="0">
      <root>
        <mxCell id="0" />
        <mxCell id="1" parent="0" />
        <mxCell id="AI-wWIgR4nqGqHARFR6b-1" style="edgeStyle=orthogonalEdgeStyle;rounded=0;orthogonalLoop=1;jettySize=auto;html=1;entryX=0;entryY=0.5;entryDx=0;entryDy=0;startArrow=none;startFill=0;endArrow=openThin;endFill=0;" edge="1" parent="1" source="AI-wWIgR4nqGqHARFR6b-6" target="AI-wWIgR4nqGqHARFR6b-21">
          <mxGeometry relative="1" as="geometry" />
        </mxCell>
        <mxCell id="AI-wWIgR4nqGqHARFR6b-2" style="edgeStyle=orthogonalEdgeStyle;rounded=0;orthogonalLoop=1;jettySize=auto;html=1;entryX=0;entryY=0.5;entryDx=0;entryDy=0;startArrow=none;startFill=0;endArrow=openThin;endFill=0;" edge="1" parent="1" source="AI-wWIgR4nqGqHARFR6b-6" target="AI-wWIgR4nqGqHARFR6b-22">
          <mxGeometry relative="1" as="geometry" />
        </mxCell>
        <mxCell id="AI-wWIgR4nqGqHARFR6b-3" style="edgeStyle=orthogonalEdgeStyle;rounded=0;orthogonalLoop=1;jettySize=auto;html=1;entryX=0;entryY=0.5;entryDx=0;entryDy=0;startArrow=none;startFill=0;endArrow=openThin;endFill=0;" edge="1" parent="1" source="AI-wWIgR4nqGqHARFR6b-6" target="AI-wWIgR4nqGqHARFR6b-25">
          <mxGeometry relative="1" as="geometry" />
        </mxCell>
        <mxCell id="AI-wWIgR4nqGqHARFR6b-4" style="edgeStyle=orthogonalEdgeStyle;rounded=0;orthogonalLoop=1;jettySize=auto;html=1;entryX=0;entryY=0.5;entryDx=0;entryDy=0;startArrow=none;startFill=0;endArrow=openThin;endFill=0;" edge="1" parent="1" source="AI-wWIgR4nqGqHARFR6b-6" target="AI-wWIgR4nqGqHARFR6b-32">
          <mxGeometry relative="1" as="geometry" />
        </mxCell>
        <mxCell id="AI-wWIgR4nqGqHARFR6b-5" style="edgeStyle=orthogonalEdgeStyle;rounded=0;orthogonalLoop=1;jettySize=auto;html=1;entryX=0;entryY=0.5;entryDx=0;entryDy=0;startArrow=none;startFill=0;endArrow=openThin;endFill=0;" edge="1" parent="1" source="AI-wWIgR4nqGqHARFR6b-6" target="AI-wWIgR4nqGqHARFR6b-33">
          <mxGeometry relative="1" as="geometry" />
        </mxCell>
        <mxCell id="AI-wWIgR4nqGqHARFR6b-6" value="Admin" style="shape=umlActor;verticalLabelPosition=bottom;verticalAlign=top;html=1;outlineConnect=0;" vertex="1" parent="1">
          <mxGeometry x="120" y="-40" width="30" height="60" as="geometry" />
        </mxCell>
        <mxCell id="AI-wWIgR4nqGqHARFR6b-7" style="edgeStyle=orthogonalEdgeStyle;rounded=0;orthogonalLoop=1;jettySize=auto;html=1;entryX=0;entryY=0.5;entryDx=0;entryDy=0;startArrow=none;startFill=0;endArrow=openThin;endFill=0;" edge="1" parent="1" source="AI-wWIgR4nqGqHARFR6b-11" target="AI-wWIgR4nqGqHARFR6b-27">
          <mxGeometry relative="1" as="geometry" />
        </mxCell>
        <mxCell id="AI-wWIgR4nqGqHARFR6b-8" style="edgeStyle=orthogonalEdgeStyle;rounded=0;orthogonalLoop=1;jettySize=auto;html=1;entryX=0;entryY=0.5;entryDx=0;entryDy=0;startArrow=none;startFill=0;endArrow=openThin;endFill=0;" edge="1" parent="1" source="AI-wWIgR4nqGqHARFR6b-11" target="AI-wWIgR4nqGqHARFR6b-28">
          <mxGeometry relative="1" as="geometry" />
        </mxCell>
        <mxCell id="AI-wWIgR4nqGqHARFR6b-9" style="edgeStyle=orthogonalEdgeStyle;rounded=0;orthogonalLoop=1;jettySize=auto;html=1;entryX=0;entryY=0.5;entryDx=0;entryDy=0;startArrow=none;startFill=0;endArrow=openThin;endFill=0;" edge="1" parent="1" source="AI-wWIgR4nqGqHARFR6b-11" target="AI-wWIgR4nqGqHARFR6b-31">
          <mxGeometry relative="1" as="geometry" />
        </mxCell>
        <mxCell id="AI-wWIgR4nqGqHARFR6b-10" style="edgeStyle=orthogonalEdgeStyle;rounded=0;orthogonalLoop=1;jettySize=auto;html=1;entryX=0;entryY=0.5;entryDx=0;entryDy=0;" edge="1" parent="1" source="AI-wWIgR4nqGqHARFR6b-11" target="AI-wWIgR4nqGqHARFR6b-34">
          <mxGeometry relative="1" as="geometry" />
        </mxCell>
        <mxCell id="AI-wWIgR4nqGqHARFR6b-11" value="User" style="shape=umlActor;verticalLabelPosition=bottom;verticalAlign=top;html=1;outlineConnect=0;" vertex="1" parent="1">
          <mxGeometry x="120" y="470" width="30" height="60" as="geometry" />
        </mxCell>
        <mxCell id="AI-wWIgR4nqGqHARFR6b-12" style="edgeStyle=orthogonalEdgeStyle;rounded=0;orthogonalLoop=1;jettySize=auto;html=1;entryX=1;entryY=0.5;entryDx=0;entryDy=0;startArrow=none;startFill=0;endArrow=openThin;endFill=0;" edge="1" parent="1" source="AI-wWIgR4nqGqHARFR6b-17" target="AI-wWIgR4nqGqHARFR6b-33">
          <mxGeometry relative="1" as="geometry" />
        </mxCell>
        <mxCell id="AI-wWIgR4nqGqHARFR6b-13" style="edgeStyle=orthogonalEdgeStyle;rounded=0;orthogonalLoop=1;jettySize=auto;html=1;entryX=1;entryY=0.5;entryDx=0;entryDy=0;startArrow=none;startFill=0;endArrow=openThin;endFill=0;" edge="1" parent="1" source="AI-wWIgR4nqGqHARFR6b-17" target="AI-wWIgR4nqGqHARFR6b-32">
          <mxGeometry relative="1" as="geometry" />
        </mxCell>
        <mxCell id="AI-wWIgR4nqGqHARFR6b-14" style="edgeStyle=orthogonalEdgeStyle;rounded=0;orthogonalLoop=1;jettySize=auto;html=1;entryX=1;entryY=0.5;entryDx=0;entryDy=0;startArrow=none;startFill=0;endArrow=openThin;endFill=0;" edge="1" parent="1" source="AI-wWIgR4nqGqHARFR6b-17" target="AI-wWIgR4nqGqHARFR6b-21">
          <mxGeometry relative="1" as="geometry" />
        </mxCell>
        <mxCell id="AI-wWIgR4nqGqHARFR6b-15" style="edgeStyle=orthogonalEdgeStyle;rounded=0;orthogonalLoop=1;jettySize=auto;html=1;entryX=1;entryY=0.5;entryDx=0;entryDy=0;" edge="1" parent="1" source="AI-wWIgR4nqGqHARFR6b-17" target="AI-wWIgR4nqGqHARFR6b-43">
          <mxGeometry relative="1" as="geometry" />
        </mxCell>
        <mxCell id="AI-wWIgR4nqGqHARFR6b-16" style="edgeStyle=orthogonalEdgeStyle;rounded=0;orthogonalLoop=1;jettySize=auto;html=1;entryX=1;entryY=0.5;entryDx=0;entryDy=0;" edge="1" parent="1" source="AI-wWIgR4nqGqHARFR6b-17" target="AI-wWIgR4nqGqHARFR6b-44">
          <mxGeometry relative="1" as="geometry" />
        </mxCell>
        <mxCell id="AI-wWIgR4nqGqHARFR6b-17" value="Master" style="shape=umlActor;verticalLabelPosition=bottom;verticalAlign=top;html=1;outlineConnect=0;" vertex="1" parent="1">
          <mxGeometry x="730" y="-245" width="30" height="60" as="geometry" />
        </mxCell>
        <mxCell id="AI-wWIgR4nqGqHARFR6b-18" style="edgeStyle=orthogonalEdgeStyle;rounded=0;orthogonalLoop=1;jettySize=auto;html=1;entryX=1;entryY=0.5;entryDx=0;entryDy=0;" edge="1" parent="1" source="AI-wWIgR4nqGqHARFR6b-20" target="AI-wWIgR4nqGqHARFR6b-26">
          <mxGeometry relative="1" as="geometry" />
        </mxCell>
        <mxCell id="AI-wWIgR4nqGqHARFR6b-19" style="edgeStyle=orthogonalEdgeStyle;rounded=0;orthogonalLoop=1;jettySize=auto;html=1;entryX=1;entryY=0.5;entryDx=0;entryDy=0;" edge="1" parent="1" source="AI-wWIgR4nqGqHARFR6b-20" target="AI-wWIgR4nqGqHARFR6b-34">
          <mxGeometry relative="1" as="geometry" />
        </mxCell>
        <mxCell id="AI-wWIgR4nqGqHARFR6b-20" value="Guest" style="shape=umlActor;verticalLabelPosition=bottom;verticalAlign=top;html=1;outlineConnect=0;" vertex="1" parent="1">
          <mxGeometry x="720" y="290" width="30" height="60" as="geometry" />
        </mxCell>
        <mxCell id="AI-wWIgR4nqGqHARFR6b-21" value="Add repair record" style="ellipse;whiteSpace=wrap;html=1;" vertex="1" parent="1">
          <mxGeometry x="355" y="-80" width="140" height="70" as="geometry" />
        </mxCell>
        <mxCell id="AI-wWIgR4nqGqHARFR6b-22" value="Manage repair record" style="ellipse;whiteSpace=wrap;html=1;" vertex="1" parent="1">
          <mxGeometry x="355" width="140" height="70" as="geometry" />
        </mxCell>
        <mxCell id="AI-wWIgR4nqGqHARFR6b-23" value="Edit repair record" style="ellipse;whiteSpace=wrap;html=1;" vertex="1" parent="1">
          <mxGeometry x="550" y="-40" width="140" height="70" as="geometry" />
        </mxCell>
        <mxCell id="AI-wWIgR4nqGqHARFR6b-24" value="Delete repair record" style="ellipse;whiteSpace=wrap;html=1;" vertex="1" parent="1">
          <mxGeometry x="550" y="40" width="140" height="70" as="geometry" />
        </mxCell>
        <mxCell id="AI-wWIgR4nqGqHARFR6b-25" value="Logout" style="ellipse;whiteSpace=wrap;html=1;" vertex="1" parent="1">
          <mxGeometry x="355" y="80" width="140" height="70" as="geometry" />
        </mxCell>
        <mxCell id="AI-wWIgR4nqGqHARFR6b-26" value="Login" style="ellipse;whiteSpace=wrap;html=1;" vertex="1" parent="1">
          <mxGeometry x="355" y="330" width="140" height="70" as="geometry" />
        </mxCell>
        <mxCell id="AI-wWIgR4nqGqHARFR6b-27" value="Logout" style="ellipse;whiteSpace=wrap;html=1;" vertex="1" parent="1">
          <mxGeometry x="355" y="410" width="140" height="70" as="geometry" />
        </mxCell>
        <mxCell id="AI-wWIgR4nqGqHARFR6b-28" value="Manage profile" style="ellipse;whiteSpace=wrap;html=1;" vertex="1" parent="1">
          <mxGeometry x="355" y="570" width="140" height="70" as="geometry" />
        </mxCell>
        <mxCell id="AI-wWIgR4nqGqHARFR6b-29" value="Edit profile" style="ellipse;whiteSpace=wrap;html=1;" vertex="1" parent="1">
          <mxGeometry x="550" y="530" width="140" height="70" as="geometry" />
        </mxCell>
        <mxCell id="AI-wWIgR4nqGqHARFR6b-30" value="Delete profile" style="ellipse;whiteSpace=wrap;html=1;" vertex="1" parent="1">
          <mxGeometry x="550" y="610" width="140" height="70" as="geometry" />
        </mxCell>
        <mxCell id="AI-wWIgR4nqGqHARFR6b-31" value="Create repair request" style="ellipse;whiteSpace=wrap;html=1;" vertex="1" parent="1">
          <mxGeometry x="355" y="490" width="140" height="70" as="geometry" />
        </mxCell>
        <mxCell id="AI-wWIgR4nqGqHARFR6b-32" value="Login" style="ellipse;whiteSpace=wrap;html=1;" vertex="1" parent="1">
          <mxGeometry x="355" y="-160" width="140" height="70" as="geometry" />
        </mxCell>
        <mxCell id="AI-wWIgR4nqGqHARFR6b-33" value="Set day off" style="ellipse;whiteSpace=wrap;html=1;" vertex="1" parent="1">
          <mxGeometry x="355" y="-250" width="140" height="70" as="geometry" />
        </mxCell>
        <mxCell id="AI-wWIgR4nqGqHARFR6b-34" value="Registration" style="ellipse;whiteSpace=wrap;html=1;" vertex="1" parent="1">
          <mxGeometry x="355" y="250" width="140" height="70" as="geometry" />
        </mxCell>
        <mxCell id="AI-wWIgR4nqGqHARFR6b-35" value="" style="endArrow=classic;html=1;exitX=0;exitY=0.5;exitDx=0;exitDy=0;entryX=0.979;entryY=0.3;entryDx=0;entryDy=0;entryPerimeter=0;dashed=1;" edge="1" parent="1" source="AI-wWIgR4nqGqHARFR6b-29" target="AI-wWIgR4nqGqHARFR6b-28">
          <mxGeometry relative="1" as="geometry">
            <mxPoint x="340" y="530" as="sourcePoint" />
            <mxPoint x="500" y="530" as="targetPoint" />
          </mxGeometry>
        </mxCell>
        <mxCell id="AI-wWIgR4nqGqHARFR6b-36" value="Include" style="edgeLabel;resizable=0;html=1;align=center;verticalAlign=middle;" connectable="0" vertex="1" parent="AI-wWIgR4nqGqHARFR6b-35">
          <mxGeometry relative="1" as="geometry" />
        </mxCell>
        <mxCell id="AI-wWIgR4nqGqHARFR6b-37" value="" style="endArrow=classic;html=1;dashed=1;entryX=0.979;entryY=0.657;entryDx=0;entryDy=0;entryPerimeter=0;exitX=0;exitY=0.5;exitDx=0;exitDy=0;" edge="1" parent="1" source="AI-wWIgR4nqGqHARFR6b-30" target="AI-wWIgR4nqGqHARFR6b-28">
          <mxGeometry relative="1" as="geometry">
            <mxPoint x="370" y="530" as="sourcePoint" />
            <mxPoint x="470" y="530" as="targetPoint" />
          </mxGeometry>
        </mxCell>
        <mxCell id="AI-wWIgR4nqGqHARFR6b-38" value="Include" style="edgeLabel;resizable=0;html=1;align=center;verticalAlign=middle;" connectable="0" vertex="1" parent="AI-wWIgR4nqGqHARFR6b-37">
          <mxGeometry relative="1" as="geometry" />
        </mxCell>
        <mxCell id="AI-wWIgR4nqGqHARFR6b-39" value="" style="endArrow=classic;html=1;exitX=0;exitY=0.5;exitDx=0;exitDy=0;entryX=0.979;entryY=0.3;entryDx=0;entryDy=0;entryPerimeter=0;dashed=1;" edge="1" parent="1">
          <mxGeometry relative="1" as="geometry">
            <mxPoint x="550" as="sourcePoint" />
            <mxPoint x="492.05999999999995" y="26" as="targetPoint" />
          </mxGeometry>
        </mxCell>
        <mxCell id="AI-wWIgR4nqGqHARFR6b-40" value="Include" style="edgeLabel;resizable=0;html=1;align=center;verticalAlign=middle;" connectable="0" vertex="1" parent="AI-wWIgR4nqGqHARFR6b-39">
          <mxGeometry relative="1" as="geometry" />
        </mxCell>
        <mxCell id="AI-wWIgR4nqGqHARFR6b-41" value="" style="endArrow=classic;html=1;dashed=1;entryX=0.979;entryY=0.657;entryDx=0;entryDy=0;entryPerimeter=0;exitX=0;exitY=0.5;exitDx=0;exitDy=0;" edge="1" parent="1" source="AI-wWIgR4nqGqHARFR6b-24">
          <mxGeometry relative="1" as="geometry">
            <mxPoint x="552.94" y="75" as="sourcePoint" />
            <mxPoint x="495" y="45.98999999999978" as="targetPoint" />
          </mxGeometry>
        </mxCell>
        <mxCell id="AI-wWIgR4nqGqHARFR6b-42" value="Include" style="edgeLabel;resizable=0;html=1;align=center;verticalAlign=middle;" connectable="0" vertex="1" parent="AI-wWIgR4nqGqHARFR6b-41">
          <mxGeometry relative="1" as="geometry" />
        </mxCell>
        <mxCell id="AI-wWIgR4nqGqHARFR6b-43" value="Choose repair request&amp;nbsp;" style="ellipse;whiteSpace=wrap;html=1;" vertex="1" parent="1">
          <mxGeometry x="355" y="-330" width="140" height="70" as="geometry" />
        </mxCell>
        <mxCell id="AI-wWIgR4nqGqHARFR6b-44" value="View repair requests" style="ellipse;whiteSpace=wrap;html=1;" vertex="1" parent="1">
          <mxGeometry x="355" y="-410" width="140" height="70" as="geometry" />
        </mxCell>
      </root>
    </mxGraphModel>
  </diagram>
</mxfile>
